<svg width="12" height="12" viewBox="0 0 12 12" fill="none" xmlns="http://www.w3.org/2000/svg">
<path d="M10.9538 11.6281C9.65726 11.6281 8.37329 11.3204 7.10193 10.705C5.83057 10.0896 4.69554 9.28258 3.69682 8.28385C2.6981 7.28514 1.88999 6.15117 1.27247 4.88195C0.654953 3.61273 0.346191 2.32983 0.346191 1.03325C0.346191 0.833252 0.412858 0.666585 0.546191 0.533252C0.679525 0.399919 0.846191 0.333252 1.04619 0.333252H3.22051C3.39316 0.333252 3.54381 0.386458 3.67244 0.492869C3.80106 0.59928 3.88076 0.736675 3.91154 0.905053L4.29359 2.86657C4.32008 3.03067 4.3173 3.17981 4.28526 3.314C4.2532 3.44819 4.1829 3.56529 4.07436 3.66529L2.54102 5.164C3.06752 6.05803 3.69531 6.86572 4.42438 7.58709C5.15343 8.30845 5.97865 8.93752 6.90002 9.47427L8.38976 7.95889C8.4983 7.85034 8.62672 7.77321 8.77501 7.72749C8.9233 7.68175 9.07522 7.67214 9.23078 7.69864L11.082 8.07555C11.2504 8.11316 11.3878 8.19458 11.4942 8.31979C11.6006 8.445 11.6538 8.59393 11.6538 8.76659V10.9281C11.6538 11.1281 11.5872 11.2948 11.4538 11.4281C11.3205 11.5614 11.1538 11.6281 10.9538 11.6281ZM2.06156 4.21787L3.25131 3.0794C3.27267 3.0623 3.28656 3.0388 3.29297 3.00889C3.29939 2.97896 3.29831 2.95119 3.28976 2.92555L3.00003 1.4358C2.99147 1.40161 2.97651 1.37597 2.95514 1.35889C2.93378 1.34179 2.906 1.33324 2.87181 1.33324H1.44617C1.42053 1.33324 1.39916 1.34179 1.38206 1.35889C1.36497 1.37597 1.35642 1.39734 1.35642 1.42299C1.3906 1.87854 1.46517 2.34136 1.58014 2.81145C1.6951 3.28154 1.85557 3.75035 2.06156 4.21787ZM10.5641 10.6076C10.5898 10.6076 10.6111 10.599 10.6282 10.582C10.6453 10.5649 10.6539 10.5435 10.6539 10.5178V9.11529C10.6539 9.0811 10.6453 9.05331 10.6282 9.03194C10.6111 9.01057 10.5855 8.99561 10.5513 8.98707L9.15129 8.70245C9.12565 8.69391 9.10321 8.69284 9.08398 8.69925C9.06474 8.70566 9.04444 8.71955 9.02307 8.74092L7.83589 9.94092C8.27777 10.1469 8.73867 10.3044 9.21859 10.4134C9.6985 10.5223 10.147 10.5871 10.5641 10.6076Z" fill="white"/>
</svg>
