<svg width="16" height="16" viewBox="0 0 16 16" fill="none" xmlns="http://www.w3.org/2000/svg">
<path d="M6.03566 8.03414C6.03566 6.93991 6.92246 6.05263 8.01669 6.05263C9.11092 6.05263 9.9982 6.93991 9.9982 8.03414C9.9982 9.12837 9.11092 10.0157 8.01669 10.0157C6.92246 10.0157 6.03566 9.12837 6.03566 8.03414ZM4.96449 8.03414C4.96449 9.71987 6.33096 11.0863 8.01669 11.0863C9.70243 11.0863 11.0689 9.71987 11.0689 8.03414C11.0689 6.34841 9.70243 4.98194 8.01669 4.98194C6.33096 4.98194 4.96454 6.34831 4.96454 8.03414H4.96449ZM10.4765 4.86092C10.4764 5.002 10.5182 5.13992 10.5965 5.25725C10.6749 5.37458 10.7862 5.46605 10.9165 5.52009C11.0469 5.57413 11.1903 5.58831 11.3287 5.56084C11.467 5.53337 11.5941 5.46549 11.6939 5.36578C11.7937 5.26606 11.8617 5.13899 11.8893 5.00064C11.9169 4.86229 11.9028 4.71886 11.8489 4.58851C11.7949 4.45815 11.7036 4.34671 11.5863 4.26829C11.469 4.18986 11.3311 4.14798 11.1901 4.14792H11.1898C11.0007 4.14801 10.8193 4.22315 10.6856 4.35683C10.5519 4.49052 10.4767 4.67182 10.4765 4.86092ZM5.61529 12.8725C5.03577 12.8461 4.72078 12.7496 4.51146 12.668C4.23394 12.56 4.03593 12.4313 3.82775 12.2234C3.61956 12.0155 3.49069 11.8177 3.38313 11.5402C3.30153 11.331 3.205 11.0159 3.17866 10.4363C3.14984 9.8098 3.14408 9.62158 3.14408 8.03424C3.14408 6.44689 3.15031 6.2592 3.17866 5.63213C3.20505 5.0526 3.30229 4.73814 3.38313 4.52829C3.49117 4.25077 3.61985 4.05277 3.82775 3.84458C4.03565 3.6364 4.23346 3.50753 4.51146 3.39997C4.72069 3.31837 5.03577 3.22184 5.61529 3.19549C6.24184 3.16667 6.43006 3.16092 8.01669 3.16092C9.60333 3.16092 9.79173 3.16706 10.4188 3.19559C10.9983 3.22198 11.3128 3.31922 11.5226 3.40006C11.8002 3.50763 11.9982 3.63678 12.2064 3.84468C12.4145 4.05258 12.5429 4.25087 12.651 4.52839C12.7326 4.73762 12.8291 5.0527 12.8554 5.63222C12.8843 6.25929 12.89 6.44698 12.89 8.03433C12.89 9.62168 12.8843 9.80937 12.8554 10.4364C12.8291 11.016 12.732 11.331 12.651 11.5403C12.5429 11.8178 12.4143 12.0158 12.2064 12.2235C11.9985 12.4312 11.8002 12.5601 11.5226 12.6681C11.3134 12.7497 10.9983 12.8463 10.4188 12.8726C9.79225 12.9014 9.60404 12.9072 8.01669 12.9072C6.42934 12.9072 6.24165 12.9014 5.61529 12.8726V12.8725ZM5.56608 2.12609C4.93329 2.1549 4.5009 2.25524 4.12329 2.40217C3.73245 2.55391 3.40115 2.75749 3.07033 3.08779C2.73951 3.41808 2.53646 3.74943 2.38472 4.14074C2.23778 4.51859 2.13745 4.95075 2.10863 5.58353C2.07934 6.21731 2.07263 6.41993 2.07263 8.03414C2.07263 9.64836 2.07934 9.85098 2.10863 10.4848C2.13745 11.1176 2.23778 11.5497 2.38472 11.9275C2.53646 12.3184 2.73956 12.6503 3.07033 12.9805C3.40111 13.3107 3.73198 13.5139 4.12329 13.6661C4.50161 13.813 4.93329 13.9134 5.56608 13.9422C6.20019 13.971 6.40248 13.9782 8.01669 13.9782C9.63091 13.9782 9.83353 13.9715 10.4673 13.9422C11.1001 13.9134 11.5322 13.813 11.9101 13.6661C12.3009 13.5139 12.6322 13.3108 12.9631 12.9805C13.2939 12.6502 13.4965 12.3184 13.6487 11.9275C13.7956 11.5497 13.8964 11.1175 13.9248 10.4848C13.9536 9.8505 13.9603 9.64836 13.9603 8.03414C13.9603 6.41993 13.9536 6.21731 13.9248 5.58353C13.8959 4.9507 13.7956 4.51835 13.6487 4.14074C13.4965 3.74991 13.2934 3.41861 12.9631 3.08779C12.6328 2.75696 12.3009 2.55391 11.9106 2.40217C11.5322 2.25524 11.1001 2.15443 10.4678 2.12609C9.83391 2.09713 9.63138 2.09009 8.01741 2.09009C6.40343 2.09009 6.20043 2.09679 5.56631 2.12609" fill="white"/>
</svg>
