<svg width="14" height="14" viewBox="0 0 14 14" fill="none" xmlns="http://www.w3.org/2000/svg">
<path d="M7.00006 13.3334C6.13169 13.3334 5.31225 13.1669 4.54175 12.834C3.77124 12.5011 3.09923 12.0479 2.52571 11.4744C1.95221 10.9009 1.49901 10.2289 1.16611 9.45838C0.833204 8.68788 0.666748 7.86844 0.666748 7.00007C0.666748 6.12485 0.833204 5.3037 1.16611 4.53662C1.49901 3.76953 1.95221 3.09923 2.52571 2.52572C3.09923 1.95222 3.77124 1.49902 4.54175 1.16612C5.31225 0.833204 6.13169 0.666748 7.00006 0.666748C7.87528 0.666748 8.69643 0.833204 9.46352 1.16612C10.2306 1.49902 10.9009 1.95222 11.4744 2.52572C12.0479 3.09923 12.5011 3.76953 12.834 4.53662C13.1669 5.3037 13.3334 6.12485 13.3334 7.00007C13.3334 7.86844 13.1669 8.68788 12.834 9.45838C12.5011 10.2289 12.0479 10.9009 11.4744 11.4744C10.9009 12.0479 10.2306 12.5011 9.46352 12.834C8.69643 13.1669 7.87528 13.3334 7.00006 13.3334ZM7.00006 12.3193C7.34024 11.868 7.62657 11.4129 7.85905 10.9539C8.09153 10.4949 8.28084 9.99321 8.427 9.44877H5.57313C5.72783 10.0103 5.91929 10.5206 6.1475 10.9795C6.3757 11.4385 6.65989 11.8851 7.00006 12.3193ZM5.70906 12.136C5.45351 11.7693 5.22402 11.3524 5.0206 10.8853C4.81718 10.4182 4.65905 9.93937 4.54623 9.44877H2.28466C2.63681 10.1411 3.10904 10.7227 3.70135 11.1937C4.29367 11.6646 4.96291 11.9787 5.70906 12.136ZM8.29107 12.136C9.03722 11.9787 9.70646 11.6646 10.2988 11.1937C10.8911 10.7227 11.3633 10.1411 11.7155 9.44877H9.4539C9.31971 9.94364 9.1509 10.4246 8.94748 10.8917C8.74406 11.3588 8.52525 11.7736 8.29107 12.136ZM1.86545 8.4488H4.34366C4.30179 8.20093 4.27145 7.95798 4.25265 7.71995C4.23385 7.4819 4.22445 7.24194 4.22445 7.00007C4.22445 6.75819 4.23385 6.51823 4.25265 6.28018C4.27145 6.04215 4.30179 5.7992 4.34366 5.55133H1.86545C1.80135 5.77783 1.7522 6.0133 1.71801 6.25775C1.68383 6.50219 1.66673 6.74963 1.66673 7.00007C1.66673 7.2505 1.68383 7.49794 1.71801 7.74238C1.7522 7.98683 1.80135 8.2223 1.86545 8.4488ZM5.34365 8.4488H8.65648C8.69836 8.20093 8.7287 7.96011 8.74751 7.72635C8.76631 7.49259 8.77571 7.2505 8.77571 7.00007C8.77571 6.74963 8.76631 6.50754 8.74751 6.27378C8.7287 6.04002 8.69836 5.7992 8.65648 5.55133H5.34365C5.30177 5.7992 5.27143 6.04002 5.25261 6.27378C5.23382 6.50754 5.22441 6.74963 5.22441 7.00007C5.22441 7.2505 5.23382 7.49259 5.25261 7.72635C5.27143 7.96011 5.30177 8.20093 5.34365 8.4488ZM9.65646 8.4488H12.1347C12.1988 8.2223 12.2479 7.98683 12.2821 7.74238C12.3163 7.49794 12.3334 7.2505 12.3334 7.00007C12.3334 6.74963 12.3163 6.50219 12.2821 6.25775C12.2479 6.0133 12.1988 5.77783 12.1347 5.55133H9.65646C9.69834 5.7992 9.72868 6.04215 9.74748 6.28018C9.76628 6.51823 9.77568 6.75819 9.77568 7.00007C9.77568 7.24194 9.76628 7.4819 9.74748 7.71995C9.72868 7.95798 9.69834 8.20093 9.65646 8.4488ZM9.4539 4.55137H11.7155C11.359 3.8505 10.89 3.26886 10.3084 2.80646C9.72677 2.34408 9.05432 2.02784 8.29107 1.85775C8.54662 2.24578 8.77397 2.67014 8.97311 3.13083C9.17227 3.59152 9.33253 4.06503 9.4539 4.55137ZM5.57313 4.55137H8.427C8.2723 3.9941 8.07764 3.48063 7.84302 3.01097C7.6084 2.54131 7.32742 2.09793 7.00006 1.68083C6.67271 2.09793 6.39173 2.54131 6.15711 3.01097C5.92249 3.48063 5.72783 3.9941 5.57313 4.55137ZM2.28466 4.55137H4.54623C4.6676 4.06503 4.82786 3.59152 5.02701 3.13083C5.22616 2.67014 5.45351 2.24578 5.70906 1.85775C4.94154 2.02784 4.26803 2.34515 3.68853 2.80968C3.10904 3.27422 2.64109 3.85478 2.28466 4.55137Z" fill="white"/>
</svg>
