<svg width="122" height="34" viewBox="0 0 122 34" fill="none" xmlns="http://www.w3.org/2000/svg">
<path d="M15.4477 0H50.5362L41.952 7.63425H16.3757C12.149 7.63425 8.72269 11.0522 8.72269 15.2685C8.72269 19.4848 12.149 22.9028 16.3757 22.9028H28.9372V11.1686H37.6599V30.8198H15.4477C6.91616 30.8198 0 23.9205 0 15.4099C0 6.89924 6.91615 0 15.4477 0Z" fill="#05142C"/>
<path d="M55.936 0L39.0444 14.8444L55.936 30.8198H68.8123L49.567 14.8444L68.8123 0H55.936Z" fill="#05142C"/>
<path d="M74.7386 30.946C74.1207 30.946 73.5777 30.8013 73.1096 30.5118C72.6415 30.2222 72.2763 29.802 72.0142 29.251C71.7521 28.6999 71.621 28.0462 71.621 27.2897C71.621 26.5332 71.7521 25.8841 72.0142 25.3424C72.2763 24.7914 72.6415 24.3712 73.1096 24.0816C73.5777 23.7921 74.1207 23.6474 74.7386 23.6474C75.3565 23.6474 75.8948 23.8015 76.3536 24.1097C76.8217 24.4179 77.1353 24.8428 77.2945 25.3845H77.126V20.5093H78.4039V30.82H77.14V29.1809H77.2945C77.1447 29.7319 76.8357 30.1662 76.3676 30.4837C75.9089 30.7919 75.3659 30.946 74.7386 30.946ZM75.0335 29.9374C75.6701 29.9374 76.1804 29.7132 76.5642 29.265C76.9575 28.8167 77.1541 28.1583 77.1541 27.2897C77.1541 26.4211 76.9575 25.7674 76.5642 25.3284C76.1804 24.8895 75.6701 24.67 75.0335 24.67C74.3969 24.67 73.882 24.8895 73.4887 25.3284C73.1049 25.7674 72.913 26.4211 72.913 27.2897C72.913 28.1583 73.1049 28.8167 73.4887 29.265C73.882 29.7132 74.3969 29.9374 75.0335 29.9374Z" fill="#05142C"/>
<path d="M83.761 30.946C82.6375 30.946 81.7481 30.6238 81.0928 29.9794C80.4468 29.335 80.1238 28.4478 80.1238 27.3177C80.1238 26.5706 80.2642 25.9262 80.5451 25.3845C80.8353 24.8335 81.2332 24.4085 81.7388 24.1097C82.2443 23.8015 82.8341 23.6474 83.5082 23.6474C84.1542 23.6474 84.7019 23.7874 85.1513 24.0676C85.6007 24.3385 85.9424 24.7261 86.1765 25.2304C86.4105 25.7347 86.5275 26.3324 86.5275 27.0235V27.4438H81.1209V26.6873H85.6569L85.4181 26.8694C85.4181 26.141 85.2543 25.5759 84.9266 25.1743C84.6083 24.7727 84.1355 24.572 83.5082 24.572C82.8248 24.572 82.2958 24.8101 81.9213 25.2864C81.5468 25.7534 81.3596 26.3931 81.3596 27.2056V27.3317C81.3596 28.1909 81.5702 28.84 81.9915 29.279C82.4222 29.7179 83.0167 29.9374 83.775 29.9374C84.1963 29.9374 84.5896 29.8767 84.9547 29.7553C85.3198 29.6339 85.6709 29.4331 86.0079 29.1529L86.4292 30.0355C86.1109 30.325 85.713 30.5491 85.2355 30.7079C84.7674 30.8667 84.2759 30.946 83.761 30.946Z" fill="#05142C"/>
<path d="M88.1976 30.82V20.5093H89.4755V30.82H88.1976Z" fill="#05142C"/>
<path d="M91.6124 30.82V23.7734H92.8904V30.82H91.6124ZM91.5001 22.2325V20.8596H93.0168V22.2325H91.5001Z" fill="#05142C"/>
<path d="M97.1057 30.82L94.0864 23.7734H95.4626L97.9202 29.8253H97.527L100.027 23.7734H101.333L98.2994 30.82H97.1057Z" fill="#05142C"/>
<path d="M105.635 30.946C104.512 30.946 103.622 30.6238 102.967 29.9794C102.321 29.335 101.998 28.4478 101.998 27.3177C101.998 26.5706 102.138 25.9262 102.419 25.3845C102.709 24.8335 103.107 24.4085 103.613 24.1097C104.118 23.8015 104.708 23.6474 105.382 23.6474C106.028 23.6474 106.576 23.7874 107.025 24.0676C107.475 24.3385 107.817 24.7261 108.051 25.2304C108.285 25.7347 108.402 26.3324 108.402 27.0235V27.4438H102.995V26.6873H107.531L107.292 26.8694C107.292 26.141 107.128 25.5759 106.801 25.1743C106.482 24.7727 106.01 24.572 105.382 24.572C104.699 24.572 104.17 24.8101 103.795 25.2864C103.421 25.7534 103.234 26.3931 103.234 27.2056V27.3317C103.234 28.1909 103.444 28.84 103.866 29.279C104.296 29.7179 104.891 29.9374 105.649 29.9374C106.07 29.9374 106.464 29.8767 106.829 29.7553C107.194 29.6339 107.545 29.4331 107.882 29.1529L108.303 30.0355C107.985 30.325 107.587 30.5491 107.11 30.7079C106.642 30.8667 106.15 30.946 105.635 30.946Z" fill="#05142C"/>
<path d="M110.058 30.82V25.4965C110.058 25.2164 110.048 24.9315 110.03 24.642C110.02 24.3431 109.997 24.0536 109.959 23.7734H111.195L111.35 25.5386L111.139 25.5526C111.233 25.123 111.392 24.7681 111.617 24.4879C111.851 24.1984 112.127 23.9882 112.445 23.8575C112.773 23.7174 113.11 23.6474 113.456 23.6474C113.606 23.6474 113.732 23.652 113.835 23.6614C113.938 23.6707 114.041 23.6941 114.144 23.7314L114.116 24.8661C113.976 24.8101 113.845 24.7774 113.723 24.7681C113.611 24.7494 113.47 24.7401 113.302 24.7401C112.89 24.7401 112.534 24.8335 112.234 25.0202C111.944 25.207 111.719 25.4545 111.56 25.7627C111.411 26.0709 111.336 26.4025 111.336 26.7574V30.82H110.058Z" fill="#05142C"/>
<path d="M115.456 34L115.161 32.9633C115.601 32.8606 115.966 32.7392 116.256 32.5991C116.547 32.4683 116.79 32.2956 116.987 32.0808C117.183 31.866 117.356 31.5951 117.506 31.2682L117.857 30.4277L117.829 30.96L114.754 23.7734H116.13L118.587 29.8113H118.222L120.68 23.7734H122L118.756 31.3663C118.559 31.8239 118.344 32.2068 118.11 32.515C117.885 32.8232 117.637 33.0754 117.366 33.2715C117.104 33.4677 116.813 33.6218 116.495 33.7338C116.177 33.8459 115.83 33.9346 115.456 34Z" fill="#05142C"/>
</svg>
