<svg width="123" height="34" viewBox="0 0 123 34" fill="none" xmlns="http://www.w3.org/2000/svg">
<path d="M15.2203 0H49.7925L41.3346 7.63425H16.1347C11.9702 7.63425 8.59432 11.0522 8.59432 15.2685C8.59432 19.4848 11.9702 22.9028 16.1347 22.9028H28.5113V11.1686H37.1056V30.8198H15.2203C6.81437 30.8198 0 23.9205 0 15.4099C0 6.89924 6.81437 0 15.2203 0Z" fill="white"/>
<path d="M55.1128 0L38.4698 14.8444L55.1128 30.8198H67.7996L48.8376 14.8444L67.7996 0H55.1128Z" fill="white"/>
<path d="M73.6387 30.946C73.0299 30.946 72.4949 30.8013 72.0336 30.5118C71.5724 30.2222 71.2127 29.802 70.9544 29.251C70.6961 28.6999 70.5669 28.0462 70.5669 27.2897C70.5669 26.5332 70.6961 25.8841 70.9544 25.3424C71.2127 24.7914 71.5724 24.3712 72.0336 24.0816C72.4949 23.7921 73.0299 23.6474 73.6387 23.6474C74.2475 23.6474 74.7779 23.8015 75.2299 24.1097C75.6911 24.4179 76.0001 24.8428 76.157 25.3845H75.9909V20.5093H77.2501V30.82H76.0048V29.1809H76.157C76.0094 29.7319 75.705 30.1662 75.2437 30.4837C74.7917 30.7919 74.2567 30.946 73.6387 30.946ZM73.9293 29.9374C74.5565 29.9374 75.0592 29.7132 75.4374 29.265C75.8249 28.8167 76.0186 28.1583 76.0186 27.2897C76.0186 26.4211 75.8249 25.7674 75.4374 25.3284C75.0592 24.8895 74.5565 24.67 73.9293 24.67C73.302 24.67 72.7946 24.8895 72.4072 25.3284C72.029 25.7674 71.8399 26.4211 71.8399 27.2897C71.8399 28.1583 72.029 28.8167 72.4072 29.265C72.7946 29.7132 73.302 29.9374 73.9293 29.9374Z" fill="white"/>
<path d="M82.5283 30.946C81.4214 30.946 80.545 30.6238 79.8993 29.9794C79.2628 29.335 78.9446 28.4478 78.9446 27.3177C78.9446 26.5706 79.083 25.9262 79.3597 25.3845C79.6457 24.8335 80.0377 24.4085 80.5358 24.1097C81.0339 23.8015 81.6151 23.6474 82.2792 23.6474C82.9157 23.6474 83.4554 23.7874 83.8981 24.0676C84.3409 24.3385 84.6776 24.7261 84.9082 25.2304C85.1388 25.7347 85.2541 26.3324 85.2541 27.0235V27.4438H79.927V26.6873H84.3963L84.161 26.8694C84.161 26.141 83.9996 25.5759 83.6767 25.1743C83.3631 24.7727 82.8973 24.572 82.2792 24.572C81.6059 24.572 81.0847 24.8101 80.7157 25.2864C80.3467 25.7534 80.1622 26.3931 80.1622 27.2056V27.3317C80.1622 28.1909 80.3698 28.84 80.7849 29.279C81.2092 29.7179 81.795 29.9374 82.5421 29.9374C82.9572 29.9374 83.3447 29.8767 83.7044 29.7553C84.0642 29.6339 84.4101 29.4331 84.7422 29.1529L85.1573 30.0355C84.8436 30.325 84.4516 30.5491 83.9811 30.7079C83.5199 30.8667 83.0356 30.946 82.5283 30.946Z" fill="white"/>
<path d="M86.8996 30.82V20.5093H88.1587V30.82H86.8996Z" fill="white"/>
<path d="M90.2642 30.82V23.7734H91.5233V30.82H90.2642ZM90.1535 22.2325V20.8596H91.6479V22.2325H90.1535Z" fill="white"/>
<path d="M95.6766 30.82L92.7017 23.7734H94.0577L96.4791 29.8253H96.0917L98.5546 23.7734H99.8414L96.8527 30.82H95.6766Z" fill="white"/>
<path d="M104.081 30.946C102.974 30.946 102.097 30.6238 101.452 29.9794C100.815 29.335 100.497 28.4478 100.497 27.3177C100.497 26.5706 100.635 25.9262 100.912 25.3845C101.198 24.8335 101.59 24.4085 102.088 24.1097C102.586 23.8015 103.167 23.6474 103.831 23.6474C104.468 23.6474 105.008 23.7874 105.45 24.0676C105.893 24.3385 106.23 24.7261 106.46 25.2304C106.691 25.7347 106.806 26.3324 106.806 27.0235V27.4438H101.479V26.6873H105.948L105.713 26.8694C105.713 26.141 105.552 25.5759 105.229 25.1743C104.915 24.7727 104.449 24.572 103.831 24.572C103.158 24.572 102.637 24.8101 102.268 25.2864C101.899 25.7534 101.714 26.3931 101.714 27.2056V27.3317C101.714 28.1909 101.922 28.84 102.337 29.279C102.761 29.7179 103.347 29.9374 104.094 29.9374C104.509 29.9374 104.897 29.8767 105.257 29.7553C105.616 29.6339 105.962 29.4331 106.294 29.1529L106.709 30.0355C106.396 30.325 106.004 30.5491 105.533 30.7079C105.072 30.8667 104.588 30.946 104.081 30.946Z" fill="white"/>
<path d="M108.438 30.82V25.4965C108.438 25.2164 108.429 24.9315 108.41 24.642C108.401 24.3431 108.378 24.0536 108.341 23.7734H109.559L109.711 25.5386L109.503 25.5526C109.596 25.123 109.752 24.7681 109.974 24.4879C110.204 24.1984 110.477 23.9882 110.79 23.8575C111.113 23.7174 111.445 23.6474 111.786 23.6474C111.934 23.6474 112.059 23.652 112.16 23.6614C112.262 23.6707 112.363 23.6941 112.464 23.7314L112.437 24.8661C112.298 24.8101 112.169 24.7774 112.049 24.7681C111.939 24.7494 111.8 24.7401 111.634 24.7401C111.228 24.7401 110.878 24.8335 110.583 25.0202C110.297 25.207 110.075 25.4545 109.919 25.7627C109.771 26.0709 109.697 26.4025 109.697 26.7574V30.82H108.438Z" fill="white"/>
<path d="M113.757 34L113.466 32.9633C113.9 32.8606 114.259 32.7392 114.545 32.5991C114.831 32.4683 115.071 32.2956 115.265 32.0808C115.459 31.866 115.629 31.5951 115.777 31.2682L116.123 30.4277L116.095 30.96L113.065 23.7734H114.421L116.842 29.8113H116.482L118.904 23.7734H120.205L117.008 31.3663C116.815 31.8239 116.602 32.2068 116.372 32.515C116.15 32.8232 115.906 33.0754 115.638 33.2715C115.38 33.4677 115.094 33.6218 114.781 33.7338C114.467 33.8459 114.126 33.9346 113.757 34Z" fill="white"/>
</svg>
