<svg width="14" height="14" viewBox="0 0 14 14" fill="none" xmlns="http://www.w3.org/2000/svg">
<path fill-rule="evenodd" clip-rule="evenodd" d="M13.9565 6.99998C13.9565 10.842 10.842 13.9565 6.99998 13.9565C3.158 13.9565 0.043457 10.842 0.043457 6.99998C0.043457 3.158 3.158 0.043457 6.99998 0.043457C10.842 0.043457 13.9565 3.158 13.9565 6.99998ZM7.24917 5.17956C6.56652 5.46128 5.21205 6.03558 3.18578 6.9241C2.86071 7.05413 2.68734 7.18416 2.66566 7.30335C2.63699 7.5136 2.90332 7.59742 3.26393 7.71091C3.3122 7.7261 3.36216 7.74182 3.41333 7.75845C3.77091 7.87765 4.24768 8.01851 4.4969 8.01851C4.72445 8.01851 4.97367 7.93183 5.2554 7.73678C7.15165 6.45817 8.12686 5.80803 8.19187 5.79719C8.23522 5.78636 8.28939 5.77552 8.33274 5.80803C8.37005 5.83601 8.36721 5.88808 8.3657 5.91585C8.36545 5.92035 8.36524 5.9242 8.36524 5.92722C8.34173 6.03696 7.39953 6.91227 6.84324 7.42907C6.63057 7.62665 6.4743 7.77183 6.44732 7.8018C6.39394 7.85666 6.33955 7.90869 6.28716 7.95879C5.95675 8.27478 5.70639 8.51422 6.29563 8.90704C6.6128 9.11464 6.85938 9.28235 7.11214 9.45426C7.33432 9.60536 7.56127 9.75972 7.84513 9.94727C7.92809 10.0003 8.00763 10.0557 8.08529 10.1099C8.3728 10.3103 8.63472 10.493 8.95037 10.4674C9.13458 10.4457 9.32962 10.2723 9.42714 9.75222C9.66553 8.52779 10.1098 5.85137 10.2182 4.75696C10.229 4.65944 10.2182 4.54025 10.2073 4.48607C10.1965 4.43189 10.1748 4.35604 10.1098 4.30186C10.0231 4.23685 9.89308 4.22601 9.8389 4.22601C9.57884 4.23685 9.17792 4.37771 7.24917 5.17956Z" fill="white"/>
</svg>
