<svg width="14" height="14" viewBox="0 0 14 14" fill="none" xmlns="http://www.w3.org/2000/svg">
<path d="M12.137 1.40116C11.7906 1.08112 10.3884 0.0662824 7.26703 0.0536495C7.26703 0.0536495 3.58395 -0.169526 1.7762 1.47274C0.775177 2.47073 0.424609 3.92772 0.386595 5.73421C0.348582 7.5407 0.302121 10.9263 3.5755 11.8443V13.2465C3.5755 13.2465 3.5755 13.815 3.93029 13.9287C4.38223 14.0719 4.64832 13.6381 5.08337 13.1749C5.31989 12.9181 5.64935 12.5433 5.89432 12.257C7.28698 12.3867 8.69157 12.2842 10.0505 11.9538C10.5024 11.8064 13.062 11.4821 13.4801 8.09234C13.9236 4.60147 13.2858 2.39494 12.137 1.40116ZM12.5171 7.84389C12.1623 10.6694 10.0885 10.8463 9.70834 10.9684C8.53913 11.2557 7.33212 11.3595 6.13085 11.2758C6.13085 11.2758 4.71168 12.9602 4.26819 13.4234C4.24352 13.4524 4.21227 13.4752 4.17702 13.4899C4.14176 13.5045 4.10352 13.5106 4.06545 13.5076C3.98943 13.4866 3.96831 13.3981 3.96831 13.2676C3.96831 13.137 3.96831 10.9389 3.96831 10.9389C1.19755 10.1683 1.35805 7.28805 1.39184 5.78053C1.42563 4.27301 1.70862 3.035 2.55336 2.20123C4.06968 0.832676 7.19945 1.0348 7.19945 1.0348C9.83927 1.0348 11.1064 1.83909 11.3978 2.10438C12.3819 2.93815 12.8761 4.92571 12.5171 7.84389Z" fill="white"/>
<path fill-rule="evenodd" clip-rule="evenodd" d="M7.4804 4.26949C7.66615 4.26035 7.85174 4.29083 8.02479 4.35892C8.19783 4.42701 8.35438 4.53117 8.48394 4.66447C8.61351 4.79778 8.71311 4.95718 8.77603 5.13204C8.83895 5.30691 8.86372 5.49317 8.84867 5.67838C8.83532 5.84278 8.69122 5.96523 8.52682 5.95187C8.36242 5.93852 8.23997 5.79442 8.25333 5.63002C8.26147 5.52979 8.24807 5.42896 8.21399 5.33427C8.17992 5.23956 8.12594 5.15313 8.05562 5.08078C7.98529 5.00842 7.90022 4.95179 7.80607 4.91474C7.71192 4.8777 7.61089 4.86109 7.50975 4.86607C7.34501 4.87418 7.20488 4.7472 7.19678 4.58245C7.18867 4.41771 7.31565 4.27759 7.4804 4.26949Z" fill="white"/>
<path fill-rule="evenodd" clip-rule="evenodd" d="M6.94721 3.61705C6.95134 3.45216 7.08835 3.32184 7.25324 3.32597C7.94776 3.34337 8.60863 3.62857 9.09684 4.12189C9.09977 4.12485 9.10264 4.12788 9.10545 4.13096C9.33011 4.37784 9.50313 4.667 9.61432 4.9815C9.72551 5.296 9.77263 5.6295 9.7529 5.96243C9.74314 6.12708 9.60175 6.25265 9.4371 6.24289C9.27244 6.23313 9.14688 6.09174 9.15664 5.92708C9.17166 5.67376 9.13581 5.41998 9.05118 5.1806C8.96724 4.94318 8.83697 4.72465 8.66787 4.53759C8.28883 4.15688 7.77671 3.93658 7.23829 3.92309C7.0734 3.91896 6.94308 3.78194 6.94721 3.61705Z" fill="white"/>
<path fill-rule="evenodd" clip-rule="evenodd" d="M6.90968 2.41218C7.40487 2.40108 7.8973 2.48893 8.35794 2.67058C8.81858 2.85224 9.23813 3.12403 9.59185 3.46997C9.59368 3.47177 9.5955 3.47359 9.59729 3.47544C9.96377 3.85287 10.2491 4.30103 10.4357 4.79245C10.6223 5.28386 10.7063 5.80814 10.6824 6.3331C10.6749 6.49787 10.5352 6.62537 10.3705 6.61787C10.2057 6.61038 10.0782 6.47073 10.0857 6.30596C10.1059 5.86253 10.035 5.41966 9.87731 5.00449C9.72011 4.59053 9.47995 4.21278 9.17144 3.8943C8.87531 3.60538 8.52425 3.37824 8.13881 3.22624C7.75218 3.07377 7.3388 3.00001 6.92307 3.00933C6.75817 3.01303 6.6215 2.88235 6.6178 2.71745C6.6141 2.55255 6.74478 2.41587 6.90968 2.41218Z" fill="white"/>
<path d="M7.53307 8.01233C7.60307 8.01753 7.67336 8.00741 7.73903 7.98268C7.80469 7.95795 7.86414 7.9192 7.9132 7.86916L8.17507 7.5407C8.26473 7.44233 8.38635 7.37868 8.51848 7.36096C8.65061 7.34324 8.78478 7.3726 8.89733 7.44385C9.12142 7.57272 9.33853 7.71328 9.54778 7.86494C9.74629 8.01232 10.1475 8.34499 10.1475 8.3492C10.2421 8.42542 10.3051 8.5337 10.3246 8.65334C10.3441 8.77297 10.3186 8.89557 10.2531 8.99769C10.1094 9.24661 9.92692 9.47118 9.7125 9.66302C9.55779 9.80309 9.36554 9.89527 9.1592 9.92831C9.13264 9.93286 9.1055 9.93286 9.07894 9.92831C9.0002 9.92949 8.92178 9.91811 8.84664 9.89462C8.32021 9.71316 7.81359 9.47896 7.33455 9.1956C6.88868 8.95171 6.46474 8.66994 6.06744 8.35341C5.86784 8.19597 5.67746 8.02726 5.49724 7.8481H5.47612C5.29749 7.66594 5.12832 7.47479 4.96927 7.27541C4.6532 6.87828 4.37066 6.45575 4.12453 6.01213C3.84021 5.53519 3.60664 5.02994 3.42762 4.50461C3.40266 4.42847 3.38984 4.3489 3.3896 4.2688C3.38706 4.24219 3.38706 4.2154 3.3896 4.18879C3.42209 3.98411 3.51469 3.79362 3.6557 3.64137C3.81817 3.39608 4.01927 3.17853 4.25124 2.9971C4.35432 2.93153 4.47798 2.90602 4.59869 2.92543C4.7194 2.94484 4.82874 3.00781 4.90592 3.10237C4.90592 3.10237 5.24381 3.52346 5.38742 3.70032C5.53102 3.87718 5.70842 4.18458 5.80979 4.34881C5.87944 4.46262 5.9074 4.59697 5.88892 4.72901C5.87044 4.86105 5.80666 4.98263 5.70842 5.07309L5.37897 5.32995C5.32867 5.37968 5.28979 5.43969 5.26499 5.50584C5.2402 5.572 5.23009 5.64273 5.23536 5.71315C5.39631 6.25669 5.69072 6.7516 6.09193 7.15307C6.49314 7.55454 6.98848 7.84988 7.53307 8.01233Z" fill="white"/>
</svg>
