<svg width="14" height="14" viewBox="0 0 14 14" fill="none" xmlns="http://www.w3.org/2000/svg">
<path d="M7.02844 0.043457C3.30569 0.043457 0.275446 3.13605 0.273866 6.93711C0.273472 8.15215 0.58459 9.33816 1.17563 10.3835L0.217407 13.9565L3.79803 12.9978C4.78468 13.5471 5.89531 13.8364 7.02568 13.8368H7.02844C10.7508 13.8368 13.781 10.7438 13.7826 6.94275C13.7834 5.10066 13.0814 3.36858 11.8062 2.06569C10.5309 0.762402 8.83514 0.044263 7.02844 0.043457ZM7.02844 12.6726H7.02607C6.01889 12.6726 5.03065 12.3957 4.16876 11.8738L3.96385 11.7497L1.83933 12.3187L2.40629 10.2042L2.27284 9.98739C1.71101 9.07501 1.41411 8.02037 1.4145 6.93792C1.41569 3.77843 3.93424 1.20812 7.03081 1.20812C8.53034 1.20852 9.93984 1.80536 10.9995 2.88861C12.0596 3.97146 12.6428 5.41137 12.6424 6.94235C12.6412 10.1018 10.1226 12.6726 7.02844 12.6726ZM10.1076 8.38105C9.93905 8.29481 9.10914 7.87811 8.95437 7.82048C8.7996 7.76285 8.68708 7.73424 8.57456 7.90672C8.46203 8.0792 8.13868 8.46729 8.04037 8.58214C7.94206 8.6974 7.84335 8.7115 7.67476 8.62526C7.50618 8.53902 6.96211 8.35687 6.31777 7.77011C5.81595 7.31351 5.4772 6.74932 5.37889 6.57683C5.28058 6.40435 5.36823 6.31126 5.45311 6.22542C5.52892 6.14845 5.6217 6.02433 5.70619 5.92358C5.79068 5.82283 5.81871 5.75109 5.87478 5.63584C5.93084 5.52098 5.90281 5.42023 5.86057 5.33399C5.81832 5.24775 5.48075 4.39985 5.34019 4.05488C5.20319 3.71919 5.06421 3.76432 4.96038 3.75908C4.86207 3.75384 4.74954 3.75304 4.63702 3.75304C4.5245 3.75304 4.34169 3.79616 4.18693 3.96864C4.03216 4.14112 3.59627 4.55782 3.59627 5.40573C3.59627 6.25363 4.20114 7.07292 4.28523 7.18778C4.36973 7.30263 5.47522 9.04277 7.16821 9.78871C7.57093 9.96603 7.8852 10.072 8.13038 10.1514C8.53468 10.2824 8.90265 10.2638 9.19324 10.2195C9.51739 10.1699 10.1917 9.80282 10.3323 9.40022C10.4729 8.99804 10.4728 8.65307 10.4306 8.58093C10.3884 8.5092 10.2758 8.46608 10.1072 8.37984L10.1076 8.38105Z" fill="white"/>
</svg>
